<svg xmlns="http://www.w3.org/2000/svg" xmlns:xlink="http://www.w3.org/1999/xlink" version="1.1" x="0px" y="0px" viewBox="0 0 100 125" enable-background="new 0 0 100 100" xml:space="preserve"><path fill="#FE7768" d="M67.9,44.5c0-0.3-0.1-0.6-0.1-0.9c-0.8-4.1-4.4-7.1-8.7-7.1h-2.4c-1.2,0-2.2-1-2.2-2.2V32c0-1,1.1-2,1.1-2  l-0.1,0.1c2.1-1.6,3.5-4.2,3.5-7.1c0-5-4-9-9-9s-9,4-9,9c0,2.9,1.4,5.4,3.5,7.1L44.4,30c0,0,1.1,1,1.1,2v2.2c0,1.2-1,2.2-2.2,2.2  h-2.4c-4.9,0-8.9,4-8.9,8.9v7.3v0.9v0.9v1.8v0.9V58l0,0v0.4v0.4v13.4v2.2c0,1.2,1,2.2,2.2,2.2h2.2h11.2c1.2,0,2.2-1,2.2-2.2  c0-1.2-1-2.2-2.2-2.2H36.5v-4.5V54.4v-0.9c0-0.5,0.4-0.9,0.9-0.9s0.9,0.4,0.9,0.9v0.9v9.9c0.8-0.6,1.7-0.9,2.7-0.9h2.7  c1-0.2,1.8-1.1,1.8-2.2v-2.2c0-1-1.1-2-1.1-2l0.1,0.1c-2.1-1.6-3.5-4.2-3.5-7.1c0-5,4-9,9-9s9,4,9,9c0,2.9-1.4,5.4-3.5,7.1l0.1-0.1  c0,0-1.1,1-1.1,2v2.3c0,0.1,0,0.3,0,0.4h7.2V45.4v-0.9c0-0.5,0.4-0.9,0.9-0.9s0.9,0.4,0.9,0.9v0.9v18H59h-2.7h-4  c-1.2,0-2.2,1-2.2,2.2c0,1.2,1,2.2,2.2,2.2h11.2h2.2c1.2,0,2.2-1,2.2-2.2v-2.2V50v-0.4v-0.4v-0.9v-0.9v-1.8v-0.1  C68,45.1,68,44.8,67.9,44.5z M50,5C25.1,5,5,25.1,5,50s20.1,45,45,45s45-20.1,45-45S74.9,5,50,5z M68,85.3V73.7l0,0v-3.4l0,0v-1.2  c-0.6,0.4-1.4,0.7-2.2,0.7h-2.2v17.4c-4.2,1.5-8.8,2.4-13.5,2.4s-9.3-0.8-13.5-2.4v-0.1v-5.7v-2.7h-2.2c-0.8,0-1.6-0.3-2.2-0.7v1.2  l0,0v2.2v1.1v2.6c0,0,0,0,0,0v0C19.2,78.7,10.4,65.4,10.4,50c0-21.8,17.8-39.6,39.6-39.6S89.6,28.2,89.6,50  C89.6,65.4,80.8,78.7,68,85.3z"/><text x="0" y="115" fill="#FE7768" font-size="5px" font-weight="bold" font-family="'Helvetica Neue', Helvetica, Arial-Unicode, Arial, Sans-serif"></text><text x="0" y="120" fill="#FE7768" font-size="5px" font-weight="bold" font-family="'Helvetica Neue', Helvetica, Arial-Unicode, Arial, Sans-serif"></text></svg>